<?xml version="1.0" standalone="no"?>
<!DOCTYPE svg PUBLIC "-//W3C//DTD SVG 20010904//EN"
 "http://www.w3.org/TR/2001/REC-SVG-20010904/DTD/svg10.dtd">
<svg version="1.0" xmlns="http://www.w3.org/2000/svg"
 width="50.000000pt" height="50.000000pt" viewBox="0 0 50.000000 50.000000"
 preserveAspectRatio="xMidYMid meet">

<g transform="translate(0.000000,50.000000) scale(0.100000,-0.100000)"
fill="#000000" stroke="none">
<path d="M125 325 c-44 -36 -80 -69 -80 -74 0 -10 155 -140 168 -141 4 0 7 19
7 41 l0 42 48 -7 c76 -10 134 -44 157 -93 35 -75 47 -47 19 46 -27 91 -123
171 -206 171 -14 0 -18 8 -18 40 0 22 -3 40 -7 40 -5 -1 -44 -30 -88 -65z"/>
</g>
</svg>
